<?xml version="1.0" encoding="UTF-8"?>
<svg id="_レイヤー_2" data-name="レイヤー 2" xmlns="http://www.w3.org/2000/svg" viewBox="0 0 512 512">
  <defs>
    <style>
      .cls-1 {
        fill: #6d9ad1;
        stroke: #39426c;
      }

      .cls-1, .cls-2, .cls-3, .cls-4, .cls-5, .cls-6, .cls-7, .cls-8, .cls-9, .cls-10, .cls-11 {
        stroke-linecap: round;
        stroke-linejoin: round;
      }

      .cls-1, .cls-3, .cls-10 {
        stroke-width: 9.42px;
      }

      .cls-2, .cls-3 {
        stroke: #38416c;
      }

      .cls-2, .cls-3, .cls-4, .cls-5, .cls-7, .cls-8, .cls-9, .cls-10 {
        fill: none;
      }

      .cls-2, .cls-4, .cls-5, .cls-7, .cls-8, .cls-11 {
        stroke-width: 10.21px;
      }

      .cls-4 {
        stroke: #3a426e;
      }

      .cls-5 {
        stroke: #39406d;
      }

      .cls-12 {
        fill: #b56576;
      }

      .cls-6 {
        fill: #fefefe;
      }

      .cls-6, .cls-9 {
        stroke-width: 8.64px;
      }

      .cls-6, .cls-11 {
        stroke: #39416c;
      }

      .cls-7 {
        stroke: #39406c;
      }

      .cls-8, .cls-9, .cls-10 {
        stroke: #38406c;
      }

      .cls-11 {
        fill: #6db6a8;
      }
    </style>
  </defs>
  <rect class="cls-12" width="512" height="512" rx="100.53" ry="100.53"/>
  <g id="_生成オブジェクト" data-name="生成オブジェクト">
    <g>
      <path class="cls-11" d="M309.39,427.86C57.5,499.63-17.4,100.91,244.67,77.35c207.92-14.04,264.58,288.83,64.72,350.51Z"/>
      <g>
        <path class="cls-1" d="M415.72,250.8c5.66,129.67-149.63,214.57-253.66,132.75-15.61-11.33-133.04,120.74-38.41-39.94,9.77-16.59-7.63-34.05-15.29-61.12-14.26-50.38,5.67-115.1,47.39-148.48,100.92-84.58,254.3-12.88,259.97,116.79Z"/>
        <path class="cls-6" d="M252.07,176.37c17.43-1.67,34.68,6.14,44.36,21.98,8.42,13.78,8.96,33.08-.64,47.76-4.76,7.28-14.63,15.33-15.4,17.54-.48,1.39.82,2.37,1.17,3.98l13.48,62.52c.64,2.95-2.28,5.29-4.9,5.3l-28.34.12-38.35.25c-1.44,0-3.29-.69-4.19-1.04s-2.02-2.52-1.72-3.9l13.35-62.65c.52-2.42,1.62-4.3,1.91-6.35,0,.28,0,.36,0,0-18.18-12.12-28.33-34.45-20.16-55.83,6.44-16.87,21.33-27.95,39.42-29.68Z"/>
      </g>
    </g>
    <g>
      <path class="cls-2" d="M482.29,296.94c-7.04,34.51-21.3,66.73-42.39,95.01"/>
      <path class="cls-8" d="M391.96,439.9c-27.93,20.64-59.99,35.6-94.26,41.44"/>
      <path class="cls-5" d="M298.49,31.39c33.7,6.05,64.83,20.92,92.73,40.64"/>
      <path class="cls-3" d="M71.65,122.25c-18.92,26.49-33,56.18-39.6,88.52-.67,1.57-1.24,2.87-1.49,4.27"/>
      <path class="cls-7" d="M121.55,440.78c28,19.73,59,34.36,92.74,40.66"/>
      <path class="cls-8" d="M214.3,31.39c-33.66,6.22-65.02,20.82-92.7,40.68"/>
      <path class="cls-10" d="M30.56,297.73c.69,1.45.33,3.25,1.63,5.05,6.82,32.53,20.89,62.09,40.21,88.55"/>
      <line class="cls-4" x1="256.47" y1="459.54" x2="257.43" y2="504.3"/>
      <line class="cls-9" x1="240.44" y1="483.47" x2="273.64" y2="482.73"/>
      <line class="cls-4" x1="256.06" y1="5.87" x2="257.02" y2="50.63"/>
      <line class="cls-9" x1="240.03" y1="29.8" x2="273.23" y2="29.06"/>
      <line class="cls-4" x1="503.13" y1="256.5" x2="458.37" y2="257.47"/>
      <line class="cls-9" x1="479.2" y1="240.47" x2="479.94" y2="273.68"/>
      <line class="cls-4" x1="52.94" y1="256.11" x2="8.18" y2="257.07"/>
      <line class="cls-9" x1="29.01" y1="240.08" x2="29.75" y2="273.29"/>
    </g>
  </g>
</svg>